<?xml version="1.0" standalone="no"?>
<!DOCTYPE svg PUBLIC "-//W3C//DTD SVG 20010904//EN"
 "http://www.w3.org/TR/2001/REC-SVG-20010904/DTD/svg10.dtd">
<svg version="1.0" xmlns="http://www.w3.org/2000/svg"
 width="128.000000pt" height="128.000000pt" viewBox="0 0 128.000000 128.000000"
 preserveAspectRatio="xMidYMid meet">

<g transform="translate(0.000000,128.000000) scale(0.100000,-0.100000)"
fill="#000000" stroke="none">
<path d="M615 1255 c-42 -7 -77 -9 -87 -4 -45 24 -73 11 -160 -73 -48 -46 -91
-93 -98 -105 -9 -20 -19 -23 -63 -23 -32 0 -61 -6 -76 -16 -25 -18 -51 -71
-51 -105 0 -13 -12 -52 -27 -88 -51 -126 -42 -348 18 -451 14 -23 17 -36 9
-38 -27 -9 -50 -47 -50 -83 0 -31 6 -43 37 -69 31 -25 44 -30 72 -26 18 3 44
12 58 21 30 20 63 73 56 91 -7 19 8 17 33 -4 17 -13 23 -31 26 -75 6 -73 42
-120 123 -162 151 -77 324 0 325 143 0 75 -34 124 -110 158 -21 9 -7 11 75 12
60 0 120 7 150 16 36 11 52 12 60 4 7 -7 6 -12 -3 -15 -25 -9 -83 -66 -99 -96
-20 -40 -13 -114 17 -162 33 -53 95 -79 186 -80 61 0 77 4 120 30 66 41 106
108 112 184 2 33 -1 67 -7 80 -10 17 -9 25 4 37 33 33 8 58 -73 71 -31 5 -32
7 -26 39 8 43 -9 45 -33 4 -16 -28 -21 -30 -83 -30 -36 0 -79 -4 -96 -9 l-31
-9 5 49 c3 33 1 49 -7 49 -6 0 -11 -9 -11 -21 0 -40 -32 -91 -66 -105 -20 -8
-69 -14 -119 -14 -79 0 -85 1 -85 20 0 24 -35 40 -85 40 -29 0 -40 8 -75 51
-80 102 -100 253 -52 391 11 32 17 60 12 63 -27 16 -64 -109 -64 -215 0 -101
19 -165 73 -242 l38 -55 -66 -16 c-36 -9 -75 -19 -87 -22 -18 -6 -24 2 -47 65
-14 39 -34 108 -43 153 -20 92 -22 97 -33 78 -5 -7 -2 -45 6 -84 18 -86 17
-73 15 -219 -2 -113 -3 -119 -29 -148 -40 -44 -93 -51 -127 -17 -30 31 -33 67
-8 90 27 24 49 21 56 -8 8 -32 26 -33 26 -1 0 13 -16 43 -35 66 -43 52 -64
120 -72 230 -12 193 49 320 195 406 18 10 44 37 57 59 24 42 75 95 75 79 0 -5
-18 -33 -40 -63 -59 -78 -52 -121 21 -121 38 0 72 29 143 123 16 20 36 37 46
37 10 0 28 9 41 19 22 18 23 22 12 52 -7 18 -11 34 -10 35 1 2 42 11 90 20 75
15 98 15 153 5 90 -16 162 -45 207 -82 38 -31 41 -49 7 -49 -10 0 -32 -11 -49
-25 -22 -20 -36 -24 -56 -19 -19 5 -35 1 -55 -15 -19 -14 -31 -17 -36 -10 -26
43 -188 64 -260 34 -56 -23 -97 -56 -85 -68 6 -6 19 -2 37 12 64 50 168 61
252 25 l37 -15 -40 -16 c-22 -8 -65 -14 -96 -13 -50 1 -60 -2 -98 -34 -24 -20
-47 -36 -51 -36 -5 0 -9 -8 -9 -17 0 -10 -3 -33 -7 -51 -8 -39 16 -72 52 -72
30 0 78 42 109 94 31 52 71 92 110 106 l30 11 -27 -23 c-15 -13 -55 -68 -88
-123 -73 -118 -94 -143 -137 -161 -69 -30 -110 18 -98 115 5 42 4 52 -7 49
-33 -11 -27 -150 9 -176 74 -54 154 -6 245 147 28 47 63 99 77 114 25 27 25
27 33 6 8 -20 14 -21 89 -17 65 3 83 7 95 22 18 26 32 13 88 -82 86 -148 99
-149 79 -5 -7 54 -15 104 -18 110 -2 7 5 17 15 23 23 12 26 42 7 59 -8 6 -19
30 -26 53 -37 122 -91 168 -141 118 -18 -18 -23 -19 -48 -6 -71 36 -224 45
-357 21z m489 -177 c9 -12 16 -25 16 -28 0 -7 -111 -10 -122 -4 -12 7 11 34
37 44 34 14 53 11 69 -12z m-153 -43 c0 -5 -12 -11 -26 -13 -18 -2 -25 1 -25
13 0 12 7 15 25 13 14 -2 26 -7 26 -13z m-751 -22 c-14 -9 -40 -30 -57 -46
-32 -30 -33 -30 -33 -9 0 34 43 72 82 72 l32 0 -24 -17z m880 -3 c0 -5 -4 -10
-10 -10 -5 0 -10 5 -10 10 0 6 5 10 10 10 6 0 10 -4 10 -10z m57 -36 c7 -20
-11 -38 -32 -31 -13 6 -13 10 -3 27 15 24 27 26 35 4z m-467 -4 c0 -5 -4 -10
-9 -10 -6 0 -13 5 -16 10 -3 6 1 10 9 10 9 0 16 -4 16 -10z m-14 -68 c-26 -26
-66 7 -52 43 5 14 10 13 36 -7 26 -19 28 -24 16 -36z m504 -44 c0 -16 -3 -19
-11 -11 -6 6 -8 16 -5 22 11 17 16 13 16 -11z m-881 -502 c-25 -27 -30 -19
-22 44 l6 55 18 -40 c16 -38 16 -41 -2 -59z"/>
<path d="M912 820 c-35 -32 -54 -79 -60 -143 -6 -76 12 -71 21 5 10 80 70 122
121 85 13 -10 16 -20 12 -35 -7 -21 -9 -21 -37 -6 -34 17 -69 11 -69 -13 0
-10 6 -13 16 -9 8 3 33 0 55 -7 34 -10 39 -16 40 -42 l1 -30 9 35 c11 46 14
110 5 136 -7 22 -44 44 -75 44 -9 0 -27 -9 -39 -20z"/>
</g>
</svg>
